<?xml version="1.0" standalone="no"?>
<!DOCTYPE svg PUBLIC "-//W3C//DTD SVG 20010904//EN"
 "http://www.w3.org/TR/2001/REC-SVG-20010904/DTD/svg10.dtd">
<svg version="1.0" xmlns="http://www.w3.org/2000/svg"
 width="1350.000000pt" height="546.000000pt" viewBox="0 0 1350.000000 546.000000"
 preserveAspectRatio="xMidYMid meet">
<metadata>
Created by potrace 1.10, written by Peter Selinger 2001-2011
</metadata>
<g transform="translate(0.000000,546.000000) scale(0.100000,-0.100000)"
fill="#000000" stroke="none">
<path d="M6840 2730 l0 -2730 54 0 54 0 5 68 c3 37 5 1265 6 2730 l1 2662 -60
0 -60 0 0 -2730z"/>
<path d="M630 3783 c0 -5 -1 -205 -3 -445 -2 -503 -17 -447 113 -438 l75 5 -3
33 c-4 41 8 41 55 -2 54 -48 124 -64 200 -46 69 16 97 32 139 77 54 58 74 128
74 258 0 135 -17 183 -89 254 -46 46 -121 81 -175 81 -40 0 -108 -30 -143 -63
-48 -45 -61 -33 -52 49 5 38 8 108 8 157 l1 87 -100 0 c-55 0 -100 -3 -100 -7z
m371 -387 c66 -28 99 -87 99 -181 0 -67 -21 -127 -54 -154 -51 -42 -152 -28
-194 27 -25 33 -27 42 -26 132 0 111 15 141 82 172 47 21 52 21 93 4z"/>
<path d="M2511 3693 c0 -54 4 -124 8 -157 9 -71 -5 -82 -52 -39 -41 37 -99 63
-140 63 -65 -1 -140 -36 -187 -87 -63 -69 -80 -123 -80 -259 0 -98 3 -119 25
-169 26 -57 90 -130 123 -138 111 -30 111 -30 173 -16 43 10 68 21 83 40 13
15 32 32 44 38 29 15 39 -7 22 -48 -10 -26 -9 -297 2 -396 2 -25 0 -30 -17
-27 -11 2 -27 11 -35 20 -36 42 -63 52 -142 52 -59 0 -87 -5 -117 -21 -41 -21
-101 -83 -101 -104 0 -7 -6 -18 -13 -24 -8 -6 -20 -49 -27 -96 -11 -71 -11
-99 0 -170 7 -47 19 -90 27 -96 7 -6 13 -17 13 -23 0 -20 66 -86 106 -106 28
-15 58 -20 114 -20 79 0 96 7 154 62 33 32 50 27 42 -13 -3 -17 -1 -31 6 -35
21 -13 156 -13 166 -1 5 7 6 63 3 127 -4 63 -4 475 -1 915 3 440 3 806 1 813
-2 8 -31 12 -102 12 l-99 0 1 -97z m-79 -302 c65 -28 82 -65 82 -176 1 -83 -2
-93 -27 -127 -34 -44 -89 -61 -145 -46 -47 13 -59 23 -83 69 -25 51 -26 164
-1 210 23 45 34 56 73 73 45 19 50 19 101 -3z m45 -1003 c62 -66 62 -229 0
-295 -28 -30 -37 -33 -87 -33 -50 0 -59 3 -87 33 -41 42 -57 122 -42 205 8 41
19 66 42 90 28 29 37 32 87 32 50 0 59 -3 87 -32z"/>
<path d="M7655 3779 c-45 -13 -123 -95 -132 -138 -5 -20 -7 -210 -7 -422 2
-352 3 -389 20 -415 31 -50 58 -75 104 -98 46 -23 85 -25 182 -11 31 5 53 4
61 -3 21 -18 156 -21 216 -6 30 8 71 24 90 37 106 70 107 70 181 19 68 -47
109 -62 180 -68 105 -7 120 -15 120 -64 0 -14 7 -36 16 -48 9 -13 13 -33 10
-45 -3 -12 -1 -29 4 -37 6 -10 3 -21 -8 -33 -15 -17 -17 -50 -17 -301 0 -262
1 -285 20 -319 11 -20 22 -37 26 -37 3 0 25 -22 47 -49 l42 -49 -39 -49 c-53
-67 -66 -111 -47 -155 42 -93 102 -118 240 -99 56 8 83 8 98 0 23 -13 370 -15
458 -4 30 4 71 7 90 6 19 0 55 -1 80 -1 25 -1 67 -6 94 -11 57 -11 124 4 144
32 18 26 50 24 97 -8 l40 -27 398 1 c383 2 399 3 431 23 52 32 87 84 88 130 0
31 -7 49 -34 83 -48 58 -52 74 -25 92 17 11 35 13 73 7 28 -5 59 -5 70 -1 10
4 30 8 43 8 13 1 39 12 57 26 38 29 58 27 134 -10 107 -52 270 -54 426 -5 l72
22 59 -36 c50 -31 65 -35 108 -32 28 2 65 11 82 20 42 21 65 20 110 -4 48 -26
148 -28 182 -3 13 9 42 20 64 24 35 6 46 3 72 -17 62 -47 185 -22 248 50 37
43 81 146 113 264 20 75 18 101 -13 145 -51 73 -143 106 -203 72 -32 -18 -64
-19 -98 -1 -15 8 -57 16 -94 19 -59 4 -72 9 -109 41 -49 42 -87 54 -147 48
-34 -3 -51 -13 -89 -50 -25 -26 -66 -77 -90 -114 -44 -69 -56 -77 -84 -55 -40
31 -49 81 -24 141 18 42 9 81 -31 146 -72 116 -185 170 -353 170 -112 0 -185
-20 -255 -71 -52 -37 -70 -36 -134 7 -29 19 -79 43 -110 51 -80 22 -234 21
-298 -2 -54 -20 -168 -96 -182 -122 -13 -22 -57 -6 -103 37 -19 17 -61 45 -94
63 -57 29 -66 31 -175 31 -136 1 -178 -7 -241 -47 -90 -56 -84 -97 -86 533 -3
634 0 611 -85 682 -44 37 -58 42 -109 46 -32 2 -70 1 -84 -2 -44 -11 -120 -91
-149 -155 l-26 -58 -77 -13 c-89 -14 -132 -32 -189 -77 -61 -48 -85 -51 -131
-15 -21 17 -63 43 -93 59 -53 27 -59 28 -202 27 -112 0 -152 -4 -165 -15 -10
-8 -34 -22 -54 -32 -19 -10 -51 -31 -70 -48 -52 -45 -73 -47 -122 -7 -100 80
-161 108 -235 108 -40 0 -102 55 -102 89 0 26 -82 108 -127 127 -36 16 -102
17 -148 3z m167 -214 c-2 -66 -5 -131 -8 -145 -9 -52 10 -56 62 -14 47 39 47
39 138 39 87 0 93 -2 141 -34 76 -51 106 -103 126 -212 22 -123 -14 -271 -84
-347 -68 -74 -218 -97 -298 -47 -22 14 -42 32 -46 40 -8 23 -33 18 -33 -7 0
-13 -4 -28 -8 -34 -9 -14 -170 -25 -178 -13 -4 6 -8 848 -4 893 0 2 44 3 98 2
l97 -1 -3 -120z m1888 114 c4 -416 -2 -1855 -7 -1860 -5 -5 -46 -5 -93 -1 -75
6 -85 9 -82 26 2 10 1 25 -3 34 -5 12 -13 9 -43 -20 -21 -20 -59 -42 -89 -51
-46 -14 -57 -14 -110 -1 -92 24 -142 66 -185 153 -20 40 -23 62 -23 176 0 109
3 138 20 175 29 67 95 132 153 153 92 32 153 20 232 -44 19 -16 37 -29 40 -29
3 0 5 108 5 240 0 132 -4 240 -8 240 -4 0 -18 -9 -30 -21 -55 -53 -94 -69
-165 -69 -48 0 -79 6 -107 20 -41 21 -105 73 -105 86 0 4 -6 15 -13 23 -7 9
-21 39 -31 68 -21 62 -19 237 4 293 25 61 70 120 113 148 38 24 51 27 139 27
96 0 97 0 130 -32 41 -40 84 -46 73 -10 -10 31 -28 256 -22 272 6 15 207 19
207 4z m-843 -259 c23 -12 54 -37 68 -56 l26 -34 2 -268 2 -267 -83 -3 -83 -3
-12 31 c-13 35 -18 37 -42 10 -10 -11 -24 -20 -30 -20 -7 0 -18 -7 -25 -15
-20 -24 -174 -21 -225 5 -68 34 -102 75 -110 130 -16 119 23 180 139 218 37
12 75 22 86 22 10 0 45 7 77 15 31 8 72 15 90 15 32 0 33 1 33 40 0 38 -3 42
-44 62 -43 21 -46 21 -90 4 -28 -11 -52 -29 -62 -45 -16 -27 -22 -29 -103 -34
-47 -3 -90 -3 -95 0 -18 12 6 88 40 130 61 75 121 93 284 88 92 -3 123 -8 157
-25z m288 -705 c35 -25 82 -41 148 -50 85 -11 76 -62 -15 -81 -48 -9 -118 -41
-185 -84 -20 -13 -25 -13 -39 2 -13 12 -14 21 -7 30 17 22 24 102 13 152 -6
26 -8 52 -5 57 9 13 54 0 90 -26z m-193 -8 c9 -10 13 -38 12 -88 l-1 -74 -97
-3 -96 -3 0 85 0 85 78 4 c42 1 80 4 84 5 4 1 13 -4 20 -11z m1281 -244 c51
-15 72 -28 122 -78 36 -37 65 -76 73 -100 15 -43 32 -173 25 -191 -2 -7 -80
-10 -236 -9 -128 1 -235 0 -239 -2 -10 -5 19 -70 42 -93 27 -27 75 -50 103
-50 33 0 104 33 121 55 10 14 31 18 104 22 100 5 107 0 80 -50 -17 -29 -97
-108 -127 -125 -36 -21 -126 -42 -176 -42 -50 0 -140 21 -176 42 -36 19 -90
70 -100 93 -5 11 -13 27 -18 35 -19 30 -41 124 -41 170 0 61 33 163 67 209 32
44 59 71 71 71 4 0 13 5 20 12 20 20 114 46 170 47 29 1 81 -7 115 -16z m733
1 c96 -30 122 -51 155 -120 17 -38 19 -64 18 -283 0 -132 -4 -243 -8 -245 -4
-3 -45 -2 -92 2 -75 6 -84 9 -85 27 -1 11 -2 24 -3 28 0 5 -18 -4 -38 -20 -21
-17 -65 -37 -99 -46 -57 -16 -64 -16 -132 2 -70 18 -86 26 -124 63 -70 68 -64
198 13 256 52 39 164 72 283 82 108 9 126 36 68 103 -31 36 -172 13 -172 -28
0 -24 -26 -33 -117 -40 l-93 -7 0 29 c0 31 28 94 57 125 66 73 252 109 369 72z
m647 -1 c29 -9 69 -27 89 -40 59 -36 120 -158 89 -177 -4 -3 -44 -3 -88 1 -78
6 -79 6 -99 41 -48 90 -247 68 -206 -22 10 -23 97 -56 148 -56 35 0 113 -24
172 -54 66 -32 87 -68 86 -147 0 -59 -3 -70 -33 -108 -39 -49 -77 -71 -151
-88 -138 -30 -284 -6 -357 60 -32 28 -63 92 -63 127 l0 30 90 0 c86 0 90 -1
96 -24 3 -13 17 -34 30 -47 20 -19 36 -23 93 -23 78 -1 111 18 111 63 -1 31
-51 61 -102 61 -33 0 -117 22 -183 48 -67 27 -99 57 -119 111 -17 48 -17 53
-1 103 21 66 67 110 144 137 72 25 184 27 254 4z m-2651 -13 c2 -5 1 -74 -2
-152 -3 -79 -3 -215 0 -303 3 -88 2 -164 -2 -170 -11 -13 -177 -14 -186 -1 -4
6 -6 152 -4 324 l3 312 93 0 c53 0 96 -4 98 -10z m3290 -252 c-2 -34 1 -48 10
-49 7 0 27 -2 43 -2 28 -2 30 -5 33 -45 4 -54 -11 -74 -52 -70 l-31 3 -3 -72
-3 -72 43 -3 43 -3 3 -54 3 -53 -84 3 c-119 5 -126 12 -129 143 l-3 101 -27 3
c-22 3 -29 10 -34 38 -10 53 1 82 34 86 25 3 27 6 24 40 -2 21 -1 42 3 48 4 6
32 10 68 8 l62 -3 -3 -47z m508 -48 c13 -8 12 -15 -7 -52 -33 -65 -53 -115
-53 -130 0 -8 -5 -19 -11 -25 -6 -6 -14 -26 -19 -44 -5 -19 -15 -52 -23 -74
l-15 -40 -70 -3 c-78 -3 -85 2 -103 73 -4 16 -17 55 -29 85 -12 30 -25 69 -29
85 -4 17 -13 40 -19 52 -7 12 -12 33 -12 47 0 25 2 26 65 26 72 0 85 -11 85
-72 0 -37 21 -103 38 -120 14 -14 14 -13 38 104 l18 87 61 4 c33 2 62 4 65 5
3 1 12 -3 20 -8z m-719 -266 c3 -43 3 -83 -2 -88 -6 -7 -115 -11 -180 -7 -10
1 -6 151 4 168 3 4 43 8 89 7 l83 0 6 -80z m-1533 -106 c12 -12 22 -30 22 -40
0 -23 -56 -58 -93 -58 -16 0 -37 -5 -48 -10 -18 -10 -27 -7 -77 26 -12 7 27
50 71 79 58 38 86 39 125 3z m-654 -3 c18 -13 52 -34 77 -45 24 -11 53 -27 64
-35 19 -15 19 -16 -3 -38 l-22 -22 -53 28 c-48 26 -58 28 -134 23 -79 -4 -83
-4 -83 16 0 26 74 98 101 98 11 0 35 -11 53 -25z m-743 -16 c68 -54 47 -72
-75 -67 -45 2 -71 7 -74 16 -5 17 67 82 91 82 11 0 37 -14 58 -31z m474 -89
c9 -14 -13 -40 -34 -40 -26 0 -44 17 -38 34 7 18 62 22 72 6z m1047 -2 c3 -7
3 -59 0 -115 l-4 -103 -29 0 c-15 0 -31 -4 -34 -10 -12 -20 -45 -9 -79 25 -41
41 -44 42 -48 14 -2 -16 -16 -26 -51 -37 -31 -10 -51 -12 -55 -5 -4 5 -14 12
-23 15 -17 6 -29 49 -29 100 0 26 -3 29 -27 26 -24 -3 -28 -8 -31 -41 -3 -32
0 -39 17 -44 31 -8 24 -63 -8 -63 -36 1 -53 27 -55 85 -1 31 -8 60 -15 64 -16
10 -86 -2 -85 -14 0 -6 9 -12 19 -14 29 -5 57 -37 53 -62 -2 -12 -15 -31 -30
-42 -28 -21 -58 -19 -93 6 -28 21 -4 48 36 40 19 -3 29 -1 29 6 0 6 -14 14
-30 18 -32 6 -45 31 -38 74 3 23 6 24 75 22 71 -2 72 -2 75 25 4 35 41 38 46
5 4 -26 29 -35 82 -31 l35 3 1 -50 c1 -74 2 -77 27 -73 20 3 22 8 22 63 0 55
2 60 23 63 14 2 24 -3 28 -15 3 -10 8 -25 11 -33 4 -12 7 -11 18 5 29 40 37
45 81 45 41 0 45 2 39 20 -3 11 -3 24 0 30 9 14 42 12 47 -2z m85 -3 c7 -20 3
-24 -28 -27 -18 -2 -25 2 -27 20 -3 18 1 22 23 22 14 0 28 -7 32 -15z m-1260
-12 c3 -10 15 -28 25 -40 20 -21 20 -21 -1 -32 -26 -14 -30 -78 -6 -87 22 -9
20 -64 -2 -64 -36 1 -55 27 -65 92 -12 82 -11 117 3 134 16 19 38 18 46 -3z
m-542 -62 c0 -22 -4 -25 -40 -25 -37 -1 -40 -4 -43 -30 -4 -35 11 -46 53 -39
55 9 52 -36 -4 -67 -21 -11 -63 9 -98 46 -32 34 -30 78 5 115 24 26 33 29 77
27 46 -3 50 -5 50 -27z m132 11 c4 -9 1 -18 -6 -20 -30 -10 -51 -47 -51 -88 0
-47 -13 -62 -35 -44 -10 8 -15 32 -15 69 0 90 5 98 56 99 33 0 47 -4 51 -16z
m151 -12 c12 -16 22 -36 22 -45 0 -17 16 -20 25 -5 3 6 24 10 46 10 52 0 50
15 -3 26 -60 13 -58 38 3 42 64 4 84 -20 84 -101 0 -54 -3 -62 -20 -65 -11 -2
-30 -8 -42 -14 -28 -14 -79 15 -92 54 -9 26 -14 28 -60 28 -39 0 -51 -4 -51
-15 0 -11 12 -15 46 -15 36 0 45 -3 42 -16 -2 -8 -15 -23 -29 -31 -25 -15 -30
-15 -62 0 -45 22 -61 64 -47 118 12 45 31 58 81 59 28 0 40 -6 57 -30z m442
11 c5 -11 10 -29 10 -40 0 -14 6 -21 20 -21 14 0 20 7 20 21 0 28 18 59 35 59
7 0 21 -8 30 -17 16 -16 18 -16 27 0 6 12 22 17 51 17 52 0 90 -34 85 -77 -3
-26 -6 -28 -53 -28 -57 0 -69 -19 -13 -21 77 -2 88 -22 28 -49 -36 -16 -42
-17 -73 -2 -41 20 -60 57 -51 103 8 41 -12 47 -22 7 -4 -16 -10 -32 -14 -38
-4 -5 -10 -23 -14 -38 -6 -25 -11 -28 -39 -25 -23 2 -33 9 -35 23 -2 11 -10
34 -18 52 -8 17 -14 36 -14 42 0 6 -4 11 -10 11 -5 0 -10 -28 -12 -62 -3 -58
-5 -63 -27 -66 -33 -5 -37 5 -33 86 l4 71 41 4 c23 2 47 4 54 5 7 1 17 -7 23
-17z m1248 -5 c29 -31 30 -98 2 -126 -11 -11 -23 -20 -27 -20 -3 0 -14 -6 -22
-14 -14 -13 -21 -13 -50 1 -18 9 -40 27 -48 40 -19 29 -31 29 -35 1 -2 -15
-11 -24 -25 -26 -22 -3 -23 -1 -23 78 0 79 1 81 23 78 14 -2 23 -11 25 -25 5
-31 17 -29 42 7 19 26 27 30 68 30 36 0 52 -6 70 -24z"/>
<path d="M7875 3272 c-55 -47 -74 -185 -35 -261 21 -42 77 -81 116 -81 43 0
98 35 117 74 24 51 24 186 0 224 -33 50 -54 61 -118 61 -42 0 -66 -5 -80 -17z"/>
<path d="M9289 3263 c-14 -16 -31 -47 -37 -69 -48 -167 55 -308 180 -248 61
29 73 57 73 171 l0 102 -34 35 c-33 34 -39 36 -96 36 -54 0 -64 -3 -86 -27z"/>
<path d="M9328 2305 c-50 -28 -68 -72 -68 -172 0 -88 1 -91 34 -129 32 -37 36
-39 94 -39 49 1 66 5 84 23 58 54 63 238 8 292 -40 39 -105 50 -152 25z"/>
<path d="M8705 3074 c-27 -8 -66 -17 -85 -20 -46 -9 -80 -40 -80 -76 0 -49 72
-78 145 -58 58 16 93 54 95 105 5 74 7 73 -75 49z"/>
<path d="M10034 2285 c-72 -72 -64 -78 101 -79 165 -1 172 5 101 78 -43 44
-48 46 -101 46 -53 0 -58 -2 -101 -45z"/>
<path d="M10900 2100 c-8 -5 -30 -10 -47 -10 -36 0 -114 -28 -125 -44 -13 -18
-9 -60 8 -84 13 -19 24 -22 76 -22 84 0 118 22 142 93 10 30 15 60 12 66 -9
14 -46 14 -66 1z"/>
<path d="M10532 1568 c-17 -17 -15 -67 4 -75 23 -9 64 14 64 35 0 19 -29 52
-46 52 -6 0 -15 -5 -22 -12z"/>
<path d="M9120 1565 c0 -11 7 -15 23 -13 12 2 22 8 22 13 0 6 -10 11 -22 13
-16 2 -23 -2 -23 -13z"/>
<path d="M9290 1505 c0 -12 7 -15 25 -13 14 2 26 8 26 13 0 6 -12 11 -26 13
-18 2 -25 -1 -25 -13z"/>
<path d="M9822 1573 c-19 -7 -4 -23 23 -23 29 0 41 16 19 24 -18 7 -23 7 -42
-1z"/>
<path d="M10797 1563 c-13 -13 -7 -64 9 -70 41 -15 82 35 52 65 -13 13 -50 16
-61 5z"/>
<path d="M1610 3548 c-19 -5 -49 -12 -67 -15 -18 -3 -38 -11 -44 -19 -6 -8
-16 -14 -21 -14 -20 0 -77 -76 -89 -118 -14 -51 -3 -66 45 -57 16 3 53 5 83 5
42 0 55 4 60 18 16 46 44 62 110 62 73 0 104 -21 105 -72 1 -38 -14 -48 -77
-48 -27 0 -68 -5 -90 -11 -22 -6 -62 -14 -89 -19 -27 -5 -54 -14 -60 -20 -5
-5 -17 -10 -26 -10 -26 0 -77 -61 -91 -108 -20 -70 11 -157 71 -199 23 -16
120 -43 155 -43 52 0 125 24 155 52 39 35 48 35 52 1 3 -28 3 -28 91 -31 l87
-3 0 256 c0 252 0 256 -24 293 -32 51 -65 71 -155 93 -83 20 -127 22 -181 7z
m180 -401 c0 -48 -4 -57 -35 -89 -81 -80 -234 -47 -211 46 8 31 70 65 121 66
17 1 44 7 60 15 57 26 65 21 65 -38z"/>
<path d="M1792 2728 l3 -83 85 4 c47 1 87 5 89 7 2 2 4 36 4 76 l1 73 -93 3
-92 3 3 -83z"/>
<path d="M1790 2238 l0 -326 90 0 90 0 -2 326 -3 326 -87 1 -88 0 0 -327z"/>
<path d="M2990 2548 c-67 -31 -141 -113 -162 -180 -45 -140 -8 -304 87 -385
67 -58 114 -73 224 -73 88 1 101 3 160 34 71 35 139 105 143 146 3 25 2 25
-81 28 -83 3 -84 3 -113 -30 -28 -32 -32 -33 -106 -33 -65 0 -80 3 -97 21 -35
36 -66 85 -62 97 2 8 68 12 243 12 l239 0 3 34 c4 41 -26 169 -45 192 -7 8
-13 20 -13 25 0 18 -74 82 -124 108 -44 23 -60 26 -150 25 -79 -1 -111 -5
-146 -21z m218 -130 c27 -13 81 -83 82 -105 0 -14 -277 -23 -296 -10 -17 12
-7 39 31 80 50 55 115 67 183 35z"/>
<path d="M3720 2555 c-14 -8 -32 -14 -40 -15 -20 0 -80 -58 -102 -97 -10 -17
-18 -45 -18 -62 l0 -31 88 6 c85 6 111 17 124 54 2 5 24 14 50 21 71 19 124 1
137 -48 13 -46 3 -59 -52 -67 -23 -3 -69 -10 -103 -15 -116 -16 -206 -53 -245
-100 -26 -31 -29 -43 -29 -102 0 -57 4 -71 30 -107 42 -59 101 -82 206 -82 66
0 90 4 118 21 20 12 36 25 36 30 0 5 11 9 25 9 20 0 25 -5 25 -24 0 -29 6 -31
100 -31 l75 0 -3 245 c-2 135 -6 259 -9 277 -6 40 -53 88 -111 113 -36 16 -66
20 -161 20 -82 -1 -123 -5 -141 -15z m239 -349 c13 -16 -1 -100 -21 -124 -21
-25 -87 -52 -127 -52 -31 0 -46 7 -70 31 -17 17 -31 38 -31 47 0 28 48 72 78
73 15 0 52 9 82 19 68 23 75 23 89 6z"/>
<path d="M4347 2551 c-108 -51 -154 -159 -107 -251 20 -39 85 -90 114 -90 7 0
27 -7 42 -15 16 -8 41 -15 57 -15 40 0 149 -31 170 -48 9 -8 17 -25 17 -38 0
-63 -140 -89 -207 -38 -18 14 -33 33 -33 43 0 26 -19 31 -106 31 -52 0 -74 -4
-75 -12 -7 -75 48 -154 129 -187 51 -21 282 -21 332 -1 118 50 174 172 120
262 -33 57 -92 89 -197 108 -165 29 -203 45 -203 88 0 39 37 61 103 62 66 0
117 -26 117 -60 0 -22 13 -26 105 -34 80 -7 91 0 74 50 -21 62 -64 109 -124
138 -51 24 -66 26 -173 25 -89 0 -126 -5 -155 -18z"/>
<path d="M5136 2334 c-4 -9 -4 -32 0 -50 6 -32 4 -34 -25 -40 -29 -6 -31 -9
-31 -49 0 -39 3 -44 30 -54 l30 -10 0 -83 c0 -46 3 -93 6 -105 11 -39 63 -63
138 -63 l67 0 -3 53 c-3 52 -3 52 -38 55 -44 4 -50 14 -50 82 0 64 10 85 38
78 30 -8 40 3 43 47 4 40 4 40 -36 45 l-40 5 0 50 0 50 -61 3 c-50 2 -63 0
-68 -14z"/>
<path d="M5387 2238 c-8 -5 -5 -22 10 -60 12 -29 23 -62 26 -73 3 -11 15 -45
27 -75 12 -30 25 -70 30 -88 13 -54 26 -62 96 -62 68 0 84 11 84 62 0 13 7 32
15 42 8 11 15 29 15 41 0 12 7 30 15 41 8 10 15 26 15 35 0 8 14 42 30 74 22
43 27 61 18 66 -19 12 -127 8 -137 -5 -11 -14 -31 -108 -31 -146 0 -25 -4 -30
-25 -30 -26 0 -29 6 -40 90 -10 80 -22 93 -83 94 -30 1 -59 -2 -65 -6z"/>
<path d="M4874 2059 c-13 -22 -14 -149 -1 -150 13 -1 167 -1 180 0 5 1 4 143
-2 159 -3 8 -171 0 -177 -9z"/>
<path d="M2547 1773 c-10 -9 -9 -41 1 -47 16 -10 34 11 27 33 -6 21 -16 26
-28 14z"/>
<path d="M3684 1767 c-3 -9 -3 -25 0 -34 6 -15 8 -15 24 0 15 16 15 18 0 34
-16 15 -18 15 -24 0z"/>
<path d="M3605 1755 c-3 -8 -7 -22 -10 -30 -3 -11 -13 -13 -34 -9 -26 5 -36 1
-61 -26 -34 -36 -38 -69 -13 -111 20 -33 51 -42 113 -31 l45 8 2 107 c1 100 0
107 -18 107 -11 0 -22 -7 -24 -15z m-5 -105 c8 -15 7 -26 -6 -45 -21 -32 -50
-29 -72 7 -13 22 -13 29 -3 42 19 23 68 20 81 -4z"/>
<path d="M2420 1680 c0 -97 17 -140 56 -140 26 0 47 31 26 38 -42 14 -57 76
-22 87 11 3 20 13 20 21 0 24 -42 74 -62 74 -16 0 -18 -9 -18 -80z"/>
<path d="M3185 1724 c-11 -27 -12 -40 -4 -50 6 -7 11 -36 13 -64 2 -54 16 -72
51 -68 27 4 31 34 5 41 -25 6 -28 62 -5 87 14 16 14 21 -1 54 -22 46 -40 46
-59 0z"/>
<path d="M1816 1696 c-46 -43 -48 -83 -6 -126 32 -33 82 -40 115 -16 32 23 13
45 -34 39 -36 -5 -41 -3 -52 20 -17 38 2 57 57 57 53 0 60 21 14 45 -42 22
-54 19 -94 -19z"/>
<path d="M2120 1713 c-47 -29 -61 -82 -35 -133 17 -34 44 -44 91 -35 50 9 44
33 -8 37 -54 4 -56 22 -3 26 62 5 76 52 28 97 -32 28 -38 29 -73 8z m55 -64
c-10 -15 -55 -11 -55 5 0 8 6 16 13 19 17 6 49 -12 42 -24z"/>
<path d="M2814 1709 c-72 -45 -43 -169 39 -169 39 0 61 13 55 31 -3 9 -20 14
-43 14 -22 0 -40 5 -42 13 -3 9 11 12 51 12 53 0 56 1 56 25 0 31 -27 75 -46
75 -8 0 -14 5 -14 10 0 15 -21 11 -56 -11z m60 -60 c-7 -12 -51 -11 -59 1 -9
15 37 30 52 18 7 -6 10 -14 7 -19z"/>
<path d="M3067 1714 c-23 -13 -28 -21 -25 -47 2 -25 10 -35 35 -47 40 -18 37
-35 -5 -35 -39 -1 -49 -10 -32 -30 7 -9 29 -15 51 -15 30 0 42 5 55 25 14 22
15 30 4 50 -7 13 -22 25 -33 27 -31 5 -33 28 -3 28 31 0 34 20 8 43 -22 20
-20 20 -55 1z"/>
<path d="M3775 1695 c-44 -45 -46 -81 -6 -124 21 -23 38 -31 63 -31 18 0 38 4
43 8 23 15 55 66 55 84 0 38 -65 98 -106 98 -7 0 -29 -16 -49 -35z m95 -46 c9
-15 8 -24 -2 -37 -31 -40 -50 -41 -72 -7 -13 19 -14 30 -6 45 15 27 66 27 80
-1z"/>
<path d="M2009 1712 c-32 -3 -38 -7 -43 -34 -17 -85 3 -160 33 -124 7 8 11 27
10 43 -4 51 1 63 26 69 15 4 25 13 25 24 0 23 -6 26 -51 22z"/>
<path d="M2275 1706 c-20 -16 -20 -16 -1 -31 11 -8 28 -15 39 -15 14 0 17 -5
13 -16 -4 -9 -1 -23 5 -30 15 -18 3 -34 -27 -34 -27 0 -33 24 -9 34 28 10 16
27 -17 24 -29 -3 -33 -7 -36 -35 -4 -45 26 -63 96 -56 l52 6 0 56 c0 37 -6 63
-18 78 -23 30 -71 39 -97 19z"/>
<path d="M3413 1708 c-6 -7 -11 -34 -11 -59 1 -50 -6 -69 -26 -69 -24 0 -38
28 -40 77 -1 42 -4 48 -23 51 -22 3 -23 0 -23 -55 0 -45 5 -64 23 -86 21 -27
25 -28 74 -21 l51 6 4 71 c3 74 -9 110 -29 85z"/>
<path d="M2547 1703 c-9 -8 -9 -147 -1 -156 3 -3 12 -3 20 0 10 4 14 23 14 68
0 82 -11 111 -33 88z"/>
<path d="M2604 1695 c-3 -8 1 -22 10 -30 9 -9 16 -25 16 -35 0 -10 5 -22 10
-25 6 -3 10 -14 10 -24 0 -10 7 -24 15 -31 13 -10 19 -10 35 5 11 10 20 24 20
31 0 7 9 32 21 54 12 22 19 47 15 55 -9 25 -35 17 -42 -12 -9 -39 -35 -67 -46
-51 -4 7 -8 25 -8 39 0 36 -45 55 -56 24z"/>
<path d="M3687 1704 c-4 -4 -7 -40 -7 -81 0 -58 3 -73 15 -73 17 0 17 2 15 85
-1 59 -9 82 -23 69z"/>
</g>
</svg>
