<?xml version="1.0" standalone="no"?>
<!DOCTYPE svg PUBLIC "-//W3C//DTD SVG 20010904//EN"
 "http://www.w3.org/TR/2001/REC-SVG-20010904/DTD/svg10.dtd">
<svg version="1.0" xmlns="http://www.w3.org/2000/svg"
 width="1350.000000pt" height="369.000000pt" viewBox="0 0 1350.000000 369.000000"
 preserveAspectRatio="xMidYMid meet">
<metadata>
Created by potrace 1.10, written by Peter Selinger 2001-2011
</metadata>
<g transform="translate(0.000000,369.000000) scale(0.100000,-0.100000)"
fill="#000000" stroke="none">
<path d="M6840 1845 l0 -1845 54 0 53 0 6 118 c4 64 7 446 7 849 0 402 0 735
1 740 1 4 1 452 0 996 l-1 987 -60 0 -60 0 0 -1845z"/>
<path d="M7625 2421 c-64 -30 -113 -88 -124 -146 -7 -40 -9 -423 -2 -586 1
-45 51 -110 108 -145 35 -20 51 -23 104 -20 35 2 99 -1 143 -6 91 -12 127 -5
223 45 59 30 63 30 81 14 10 -9 22 -17 27 -17 5 0 29 -10 54 -22 36 -18 62
-22 121 -21 41 0 113 1 160 2 92 2 139 13 183 44 23 15 33 17 50 9 118 -56
121 -57 197 -55 41 2 120 3 176 3 l101 0 46 40 c93 82 91 74 92 405 1 175 -3
304 -10 325 -10 36 -68 102 -117 134 -34 22 -95 15 -155 -20 -40 -23 -93 -81
-106 -116 -4 -11 -17 -18 -31 -18 -33 0 -97 -25 -168 -67 -31 -18 -64 -33 -72
-33 -9 0 -39 15 -66 34 -66 45 -133 60 -232 52 -82 -7 -142 -29 -186 -69 -38
-35 -87 -28 -159 21 -37 25 -78 44 -105 48 -37 6 -53 17 -111 80 -98 104 -143
122 -222 85z m137 -176 c-2 -49 -5 -102 -8 -118 -7 -32 20 -49 39 -25 27 34
62 48 119 48 83 0 143 -40 193 -130 25 -46 26 -227 1 -265 -9 -13 -16 -29 -16
-36 0 -18 -65 -77 -94 -85 -14 -3 -29 -10 -32 -15 -16 -26 -174 11 -174 41 0
18 -29 10 -35 -9 -4 -14 -19 -20 -72 -25 -36 -4 -68 -5 -70 -2 -3 3 -7 673 -4
707 1 4 36 6 79 5 l77 -1 -3 -90z m1496 -259 c1 -193 -2 -354 -6 -358 -5 -5
-38 -6 -75 -2 -59 6 -66 9 -72 31 -6 24 -7 24 -28 9 -48 -35 -98 -56 -130 -56
-43 0 -116 32 -144 62 -86 94 -97 279 -23 393 57 88 180 114 265 55 72 -50 71
-52 50 95 -8 55 -15 103 -15 107 0 11 30 15 105 14 l70 -1 3 -349z m-679 141
c78 -39 79 -43 83 -287 l3 -215 -65 4 c-44 2 -68 8 -76 19 -11 15 -17 14 -62
-11 -61 -33 -121 -35 -185 -7 -68 30 -97 73 -97 145 0 53 3 60 36 91 19 19 47
36 62 39 15 3 52 12 82 21 30 8 78 15 105 17 47 2 50 4 53 30 4 35 -10 53 -48
61 -50 9 -89 -4 -106 -35 -14 -28 -17 -29 -89 -29 -67 0 -75 2 -75 19 0 50 46
108 112 142 52 27 210 24 267 -4z"/>
<path d="M7795 1993 c-33 -34 -35 -40 -35 -104 0 -46 6 -77 17 -98 38 -65 123
-69 175 -7 13 16 17 40 18 100 0 76 -1 79 -34 112 -48 48 -92 47 -141 -3z"/>
<path d="M8936 2011 c-72 -48 -73 -209 -2 -252 105 -64 197 51 154 193 -7 25
-22 45 -43 58 -41 25 -72 25 -109 1z"/>
<path d="M8444 1850 c-22 -5 -57 -15 -77 -24 -31 -12 -37 -20 -37 -44 0 -16 7
-35 15 -42 22 -18 110 -14 140 7 37 27 48 115 13 112 -7 -1 -31 -5 -54 -9z"/>
<path d="M9604 2428 c-17 -6 -55 -32 -84 -58 -66 -60 -66 -60 -69 -411 -3
-255 -2 -268 19 -308 11 -23 27 -44 35 -47 8 -3 17 -14 20 -24 3 -10 23 -30
45 -45 36 -25 44 -26 100 -20 48 6 64 12 76 30 8 13 24 25 36 28 24 7 83 -15
110 -40 10 -9 33 -18 51 -19 17 -2 49 -6 70 -10 23 -4 50 -1 70 7 20 9 63 13
115 11 83 -2 109 4 147 38 36 32 60 33 111 3 43 -25 103 -47 181 -68 32 -9
134 24 197 63 58 36 95 38 136 8 19 -14 51 -33 70 -42 40 -19 145 -26 174 -11
11 5 59 9 108 8 71 -1 94 3 123 19 48 27 68 26 148 -4 99 -38 243 -33 344 10
41 18 46 18 94 -7 44 -22 84 -20 129 9 29 19 86 17 117 -3 32 -22 105 -18 156
6 l44 22 64 -26 c92 -36 118 -29 196 50 34 35 63 73 63 83 0 10 5 22 10 25 6
3 10 15 10 26 0 11 6 32 14 48 8 15 18 55 22 90 l7 63 -59 55 c-55 51 -61 54
-98 49 -21 -4 -51 -13 -67 -21 -27 -14 -32 -14 -79 10 -27 14 -60 25 -72 25
-23 0 -28 3 -114 53 -25 15 -60 27 -76 27 -47 0 -128 -66 -172 -142 -15 -25
-33 -49 -40 -51 -16 -7 -27 35 -19 74 3 18 -5 42 -30 80 -75 118 -190 175
-326 164 -88 -8 -135 -20 -173 -46 -34 -24 -75 -24 -115 0 -77 47 -203 64
-300 39 -27 -7 -78 -32 -115 -56 -71 -46 -90 -48 -123 -12 -10 11 -26 20 -35
20 -10 0 -23 6 -29 14 -34 41 -189 60 -267 32 -22 -7 -56 -16 -76 -20 -34 -6
-38 -5 -38 14 0 37 -42 110 -83 145 -56 48 -105 62 -158 45 -43 -14 -149 -109
-149 -133 0 -15 -40 -37 -69 -37 -10 0 -38 -7 -62 -15 -44 -16 -44 -16 -66 12
-13 15 -23 35 -23 43 0 20 -96 113 -133 128 -32 14 -50 14 -93 0z m74 -98 l62
0 0 -69 c0 -43 -5 -72 -12 -78 -7 -5 -47 -9 -88 -9 l-75 1 -6 70 c-6 77 3 100
35 91 12 -3 49 -6 84 -6z m643 -6 c6 -7 8 -18 4 -25 -4 -6 -8 -160 -10 -342
l-2 -332 -64 3 c-49 3 -67 8 -78 23 -14 20 -41 26 -41 9 0 -16 -77 -50 -113
-50 -45 0 -119 33 -153 69 -40 43 -57 96 -61 196 -3 74 -1 98 16 135 42 95
107 140 198 140 50 0 64 -4 96 -31 20 -17 41 -28 46 -24 6 3 7 48 4 109 -3 57
-3 111 0 119 8 20 141 21 158 1z m-591 -434 c3 -140 4 -258 2 -262 -2 -5 -41
-8 -88 -8 l-84 0 0 258 c0 142 2 261 5 264 3 3 40 5 83 4 l77 -2 5 -254z
m1037 240 c90 -43 143 -129 143 -232 l0 -60 -182 3 c-183 3 -183 3 -186 -19
-2 -15 8 -34 31 -57 47 -47 106 -49 162 -5 33 26 46 30 101 30 75 0 78 -6 36
-69 -47 -70 -147 -116 -235 -108 -102 9 -175 55 -217 137 -29 56 -29 213 0
268 25 48 68 90 117 113 55 25 177 25 230 -1z m586 0 c26 -12 58 -35 71 -53
25 -32 25 -36 26 -236 1 -112 -2 -207 -7 -212 -4 -4 -37 -5 -72 -2 -51 5 -65
10 -68 25 -6 20 -18 24 -28 8 -13 -22 -86 -50 -128 -50 -53 0 -123 29 -157 65
-22 23 -25 36 -25 95 0 94 18 111 166 154 31 9 79 16 107 16 59 0 79 20 63 63
-17 44 -134 46 -151 2 -11 -29 -29 -35 -106 -35 -71 0 -75 5 -50 63 17 39 54
75 103 98 57 26 196 25 256 -1z m508 1 c24 -11 57 -33 72 -49 27 -28 51 -94
39 -106 -3 -4 -31 -6 -63 -6 -55 0 -89 15 -89 40 0 14 -55 40 -84 40 -52 0
-92 -32 -80 -63 7 -20 70 -47 110 -47 19 0 51 -7 71 -15 19 -8 43 -15 52 -15
25 0 89 -62 97 -94 10 -41 -14 -106 -50 -141 -64 -60 -201 -82 -301 -47 -77
27 -113 61 -128 123 -10 40 10 50 82 42 54 -5 64 -9 72 -30 21 -56 166 -57
177 0 5 23 -36 56 -68 57 -29 0 -139 31 -190 53 -84 37 -95 158 -20 228 55 51
216 67 301 30z m491 -143 l-4 -47 39 -3 c21 -2 56 1 78 5 58 13 95 -4 95 -41
0 -16 7 -49 15 -72 8 -23 15 -53 15 -66 0 -12 5 -26 10 -29 14 -8 39 54 50
121 14 85 23 96 78 92 56 -4 63 -18 34 -80 -36 -77 -52 -116 -52 -126 0 -5 -7
-23 -15 -38 -8 -16 -15 -37 -15 -46 0 -40 -95 -53 -130 -18 -11 11 -20 29 -20
40 0 10 -6 34 -14 52 -26 61 -44 113 -50 141 -7 30 -27 35 -46 12 -7 -8 -26
-15 -42 -15 l-29 0 3 -82 3 -83 40 -5 c32 -4 41 -9 43 -28 6 -42 -16 -55 -82
-49 -90 8 -101 24 -101 145 l0 97 -27 3 c-20 2 -30 10 -34 28 -8 30 1 41 36
46 22 3 25 7 22 37 -4 56 2 62 55 59 l48 -3 -3 -47z m-194 -288 c4 -79 -5 -88
-80 -80 l-53 5 -3 58 c-4 78 6 89 77 85 l56 -3 3 -65z"/>
<path d="M10005 2012 c-40 -34 -55 -70 -55 -129 0 -105 69 -166 150 -133 47
19 60 49 60 139 0 78 0 79 -35 110 -41 35 -88 41 -120 13z"/>
<path d="M10565 1999 c-46 -55 -34 -64 85 -64 94 0 105 2 108 19 2 10 -9 31
-24 47 -24 25 -35 29 -85 29 -52 0 -60 -3 -84 -31z"/>
<path d="M11240 1853 c-64 -10 -119 -37 -125 -60 -13 -52 14 -68 105 -63 54 3
102 67 84 114 -6 16 -15 17 -64 9z"/>
<path d="M768 2025 c-2 -223 1 -349 7 -354 6 -4 39 -5 75 -2 58 5 65 9 68 29
4 28 10 28 41 -2 61 -55 176 -49 250 13 23 19 41 41 41 48 0 8 7 24 16 38 11
17 15 51 16 127 1 121 -17 166 -87 223 -40 33 -46 35 -116 35 -69 0 -77 -2
-108 -31 -47 -43 -64 -33 -57 33 3 29 7 82 8 118 l3 65 -77 3 -77 3 -3 -346z
m341 9 c22 -23 25 -34 25 -107 1 -96 -17 -132 -71 -143 -95 -18 -143 28 -143
138 0 74 27 127 70 139 39 12 92 -1 119 -27z"/>
<path d="M2263 2358 c-7 -8 -8 -33 -2 -68 11 -81 11 -170 -1 -170 -6 0 -16 5
-23 10 -58 50 -60 50 -132 50 -64 0 -77 -3 -113 -30 -70 -50 -87 -95 -86 -230
0 -96 3 -121 19 -150 66 -115 215 -149 301 -68 33 30 44 28 44 -9 0 -22 3 -23
73 -23 l72 0 -1 348 0 347 -71 3 c-48 2 -73 -1 -80 -10z m-45 -311 c24 -19 52
-85 52 -121 0 -45 -33 -122 -59 -135 -11 -6 -38 -11 -61 -11 -32 0 -48 6 -70
28 -66 66 -42 234 37 255 25 7 85 -2 101 -16z"/>
<path d="M2724 2357 c-3 -8 -4 -43 -2 -78 l3 -64 85 0 85 0 0 75 0 75 -83 3
c-63 2 -84 0 -88 -11z"/>
<path d="M3324 2355 c-4 -9 -2 -62 4 -118 6 -56 8 -105 3 -110 -4 -4 -25 6
-46 23 -34 27 -45 30 -108 30 -52 0 -78 -5 -102 -20 -133 -82 -153 -329 -37
-446 36 -36 50 -44 97 -49 71 -9 122 1 158 31 31 26 52 31 44 11 -3 -8 -2 -19
2 -25 7 -12 120 -20 137 -10 7 5 8 25 3 60 -10 67 -10 347 0 498 4 68 3 120
-2 128 -15 19 -146 16 -153 -3z m-24 -321 c23 -22 25 -32 25 -113 0 -85 -1
-90 -28 -115 -20 -18 -39 -26 -65 -26 -61 0 -82 10 -102 51 -42 81 -16 204 48
228 39 15 93 3 122 -25z"/>
<path d="M1465 2162 c-51 -29 -95 -83 -95 -119 0 -17 3 -34 8 -36 4 -2 35 -2
69 1 50 3 64 8 68 23 20 62 154 63 170 1 10 -39 -13 -53 -106 -63 -46 -5 -88
-14 -93 -19 -6 -6 -21 -10 -34 -10 -52 0 -112 -72 -112 -135 0 -71 52 -126
135 -141 60 -11 154 1 162 22 7 18 43 18 57 0 9 -12 81 -22 121 -17 8 1 10 70
7 214 -5 237 -6 241 -79 278 -50 26 -232 26 -278 1z m209 -258 c31 -12 14 -91
-27 -125 -29 -24 -113 -26 -139 -2 -41 37 -5 101 57 103 24 1 49 9 92 29 1 1
8 -2 17 -5z"/>
<path d="M2724 2166 c-2 -6 -3 -122 -2 -256 l3 -245 75 2 c41 1 80 2 85 2 10
1 10 485 0 501 -7 12 -156 9 -161 -4z"/>
<path d="M3691 2160 c-92 -51 -131 -123 -131 -239 0 -146 77 -243 205 -256 81
-9 150 1 192 27 38 23 103 96 103 115 0 20 -133 18 -150 -2 -16 -19 -68 -45
-92 -45 -45 0 -118 60 -118 97 0 13 6 23 13 23 6 1 90 0 185 0 l174 -1 -5 63
c-7 109 -46 175 -129 218 -53 28 -197 28 -247 0z m166 -90 c32 0 96 -99 66
-100 -5 -1 -55 -2 -113 -3 -99 -2 -105 0 -108 19 -6 43 72 99 123 89 11 -3 25
-5 32 -5z"/>
<path d="M4250 2160 c-51 -27 -90 -72 -96 -112 -7 -43 0 -46 81 -39 50 5 62
10 70 29 18 40 112 54 152 21 14 -12 18 -65 5 -73 -5 -3 -44 -9 -89 -15 -44
-6 -91 -14 -104 -20 -13 -5 -36 -12 -51 -15 -14 -3 -40 -20 -57 -37 -28 -28
-31 -37 -31 -93 0 -59 2 -66 35 -97 59 -59 206 -68 261 -17 22 19 22 19 36 0
10 -15 28 -21 75 -23 34 -2 64 -1 68 3 4 3 6 95 5 204 -1 225 -6 245 -81 283
-55 29 -226 30 -279 1z m218 -298 c3 -37 -1 -46 -30 -72 -27 -25 -41 -30 -85
-30 -42 0 -55 4 -67 22 -9 12 -16 30 -16 40 0 23 52 58 87 58 15 0 39 7 53 14
41 23 55 16 58 -32z"/>
<path d="M4755 2157 c-75 -43 -102 -136 -59 -203 16 -23 109 -74 137 -74 26 0
141 -31 155 -42 17 -15 15 -53 -4 -69 -9 -8 -40 -13 -71 -13 -52 0 -58 2 -87
36 -28 33 -36 37 -91 40 -59 3 -60 3 -63 -25 -4 -33 28 -88 66 -113 69 -47
272 -44 341 5 37 26 71 88 71 128 0 45 -55 112 -92 113 -9 0 -19 4 -23 9 -3 6
-27 12 -53 16 -64 8 -155 35 -164 49 -25 37 18 76 83 76 43 0 51 -4 81 -39 30
-36 38 -40 88 -43 54 -3 55 -2 58 25 5 40 -37 99 -88 126 -34 18 -57 21 -143
21 -87 -1 -108 -4 -142 -23z"/>
<path d="M5419 2063 c-1 -10 0 -32 1 -50 1 -28 -2 -32 -27 -35 -23 -2 -29 -8
-31 -35 -3 -28 0 -32 25 -35 l28 -3 3 -98 c3 -119 12 -132 98 -141 67 -7 87 1
82 35 -3 22 -14 29 -75 45 -9 2 -13 28 -13 84 l0 80 35 0 c21 0 37 6 43 17 13
23 39 10 45 -24 2 -15 15 -53 27 -83 12 -30 25 -68 30 -85 19 -71 21 -73 98
-67 49 4 52 6 52 30 0 15 7 36 15 46 8 11 15 28 15 39 0 10 6 31 14 45 38 75
57 124 52 137 -4 10 -20 15 -51 15 -51 0 -59 -11 -71 -93 -7 -53 -34 -117 -48
-117 -11 0 -28 60 -43 150 -9 57 -16 61 -117 58 l-91 -3 -2 35 c-1 19 -2 43
-2 53 -1 13 -10 17 -46 17 -36 0 -45 -4 -46 -17z"/>
<path d="M5212 1793 c-6 -10 -9 -43 -8 -73 l1 -55 60 0 60 0 0 70 0 70 -52 3
c-42 2 -54 -1 -61 -15z"/>
<path d="M3014 1455 c-4 -9 -2 -21 4 -27 15 -15 44 -1 40 19 -4 23 -36 29 -44
8z"/>
<path d="M9760 1458 c-14 -5 -37 -7 -52 -4 -15 3 -50 -1 -79 -8 -38 -10 -59
-11 -76 -3 -16 7 -56 7 -136 -2 -62 -7 -130 -9 -152 -6 -29 4 -49 1 -74 -13
-40 -21 -83 -92 -70 -113 5 -8 9 -26 9 -40 0 -28 41 -72 80 -87 29 -11 119 -6
173 10 33 10 39 9 51 -7 11 -16 25 -19 72 -17 33 2 70 2 84 2 14 -1 32 -1 40
-2 15 0 145 8 245 16 28 2 56 -1 63 -7 9 -7 25 -6 51 3 27 8 44 9 57 2 37 -19
97 -17 134 6 43 27 72 28 95 2 9 -10 25 -19 34 -18 17 2 93 -17 126 -32 51
-23 103 -18 198 19 16 6 33 8 38 5 6 -3 16 0 24 6 8 7 33 12 56 12 23 -1 53 6
66 15 23 15 27 15 56 -2 18 -11 48 -20 67 -22 54 -4 170 -22 180 -28 16 -10
67 23 95 60 22 28 27 46 28 101 2 46 -2 68 -10 71 -9 3 -13 -7 -13 -30 0 -22
-6 -37 -15 -41 -8 -3 -15 -16 -15 -29 0 -14 -6 -30 -14 -37 -8 -6 -16 -21 -18
-33 -2 -17 -11 -23 -40 -25 -32 -3 -38 0 -38 16 0 11 7 22 15 26 8 3 15 16 15
29 0 14 -7 30 -15 37 -8 7 -15 22 -15 33 0 20 -1 20 -16 5 -15 -15 -19 -15
-40 -1 -43 28 -68 -1 -43 -48 10 -19 12 -19 36 -4 48 32 71 -2 29 -42 -41 -39
-79 -28 -114 33 -10 17 -12 16 -18 -14 -5 -23 -12 -32 -23 -30 -12 2 -17 17
-19 55 -2 40 -7 52 -22 56 -28 7 -53 -26 -46 -60 3 -15 2 -34 -3 -42 -16 -24
-40 -4 -47 38 -4 23 -10 38 -14 36 -5 -3 -6 -14 -3 -25 7 -25 -34 -70 -63 -70
-23 0 -58 34 -68 67 -10 33 4 94 23 100 9 2 24 9 34 14 21 11 55 -8 73 -43
l12 -23 11 28 c7 19 18 27 34 27 13 0 28 5 33 10 15 15 57 -8 82 -44 20 -28
22 -29 22 -9 0 31 53 67 79 53 11 -5 40 -10 64 -10 47 0 57 -10 57 -52 0 -20
1 -21 20 -3 11 10 20 26 20 36 0 12 10 21 26 25 16 4 22 10 16 16 -15 15 -201
39 -257 33 -27 -3 -74 -2 -104 3 -30 5 -67 6 -82 2 -20 -6 -31 -4 -40 7 -10
11 -25 13 -58 9 -72 -9 -199 -16 -276 -16 -52 1 -82 -4 -117 -21 l-46 -22 -48
24 c-50 24 -77 26 -155 14 -31 -5 -49 -4 -53 4 -4 6 -20 11 -36 11 -16 0 -32
5 -35 10 -3 6 -19 10 -36 10 -16 0 -29 -4 -29 -10 0 -12 -47 -13 -52 -1 -2 5
-14 4 -28 -1z m139 -112 c1 -101 -4 -126 -24 -126 -18 0 -25 39 -23 138 1 78
3 82 24 82 21 0 22 -4 23 -94z m-614 34 c15 0 34 -35 35 -62 0 -16 5 -28 10
-28 6 0 10 21 10 46 l0 47 58 -6 c39 -4 65 -2 82 8 21 11 29 11 53 -1 33 -17
53 -60 37 -79 -6 -7 -8 -19 -5 -27 8 -21 -37 -68 -64 -68 -41 0 -71 39 -71 94
0 48 0 48 -22 33 -16 -10 -23 -25 -24 -48 -1 -59 -4 -69 -19 -69 -9 0 -18 7
-21 15 -8 21 -28 19 -49 -5 -25 -27 -73 -25 -107 5 -22 19 -28 33 -28 66 0 43
21 79 45 79 7 0 18 7 25 15 12 14 15 14 30 0 9 -8 20 -15 25 -15z m533 -3 c16
-27 16 -29 0 -38 -23 -13 -23 -37 2 -74 26 -40 25 -55 -4 -55 -32 0 -56 35
-56 82 0 21 -4 38 -10 38 -14 0 -12 54 2 68 19 19 48 10 66 -21z m-110 -16 c6
-8 12 -38 12 -66 0 -45 -3 -52 -29 -68 -40 -24 -62 -21 -89 10 -30 35 -27 77
6 81 22 3 22 5 6 16 -22 16 -12 46 15 46 11 0 23 5 26 10 7 12 29 -1 53 -29z
m427 29 c3 -5 15 -10 25 -10 26 0 39 -27 38 -81 0 -34 -6 -49 -25 -67 -37 -34
-71 -26 -108 25 -34 47 -48 49 -53 10 -5 -37 -41 -56 -59 -31 -7 10 -13 23
-13 29 0 7 -7 26 -16 43 -19 40 -15 67 11 67 14 0 21 -8 23 -28 4 -35 33 -33
42 3 8 33 34 37 47 8 10 -22 10 -22 16 -3 4 11 17 25 29 31 31 15 36 16 43 4z
m244 -9 c19 -15 25 -30 29 -74 4 -55 4 -56 -29 -76 -42 -26 -57 -26 -86 -2
-24 20 -32 74 -13 86 7 4 7 12 0 25 -11 20 -7 25 40 47 33 15 31 15 59 -6z
m136 9 c3 -5 17 -10 31 -10 33 0 47 -38 38 -109 -7 -62 -17 -79 -52 -92 -47
-18 -130 22 -93 45 5 3 2 25 -6 48 -17 50 -4 91 36 112 33 18 38 18 46 6z"/>
<path d="M9228 1332 c-21 -4 -24 -35 -5 -51 10 -8 22 -7 45 1 18 7 32 15 32
18 -1 22 -39 39 -72 32z"/>
<path d="M9480 1320 c0 -5 9 -10 20 -10 11 0 20 5 20 10 0 6 -9 10 -20 10 -11
0 -20 -4 -20 -10z"/>
<path d="M10118 1318 c9 -9 15 -9 24 0 9 9 7 12 -12 12 -19 0 -21 -3 -12 -12z"/>
<path d="M10320 1270 c0 -5 7 -10 15 -10 8 0 15 5 15 10 0 6 -7 10 -15 10 -8
0 -15 -4 -15 -10z"/>
<path d="M10472 1328 c-30 -30 7 -65 52 -48 30 11 32 22 10 44 -18 19 -45 21
-62 4z"/>
<path d="M2921 1431 c-9 -6 -12 -18 -7 -37 4 -16 10 -49 14 -74 6 -37 11 -46
30 -48 28 -4 43 26 19 40 -20 11 -22 40 -5 68 22 35 -17 73 -51 51z"/>
<path d="M2366 1410 c-51 -33 -60 -70 -26 -112 34 -44 121 -41 136 4 8 28 -1
33 -35 18 -36 -15 -71 -5 -71 20 0 24 30 41 58 33 12 -3 29 -2 39 1 15 6 13
10 -12 31 -36 29 -50 30 -89 5z"/>
<path d="M2640 1415 c-7 -8 -18 -15 -25 -15 -33 0 -28 -102 5 -120 42 -22 108
-6 97 23 -4 12 -15 14 -41 10 -32 -5 -36 -3 -36 17 0 20 3 21 40 15 50 -8 64
-1 49 28 -27 52 -66 70 -89 42z"/>
<path d="M2785 1410 c-25 -28 -7 -70 30 -70 16 0 25 -6 25 -15 0 -9 -9 -15
-24 -15 -13 0 -26 7 -30 15 -9 25 -36 18 -36 -10 0 -18 7 -28 26 -35 35 -14
77 -12 97 3 36 26 -10 147 -56 147 -8 0 -22 -9 -32 -20z"/>
<path d="M3254 1412 c-12 -9 -26 -26 -32 -37 -10 -19 -11 -18 -17 8 -9 35 -33
35 -37 0 -5 -42 -44 -45 -53 -4 -4 17 -13 31 -21 31 -19 0 -18 -54 1 -70 8 -7
15 -23 15 -35 0 -13 7 -25 15 -29 26 -10 45 5 45 35 0 22 5 29 19 29 11 0 23
-9 26 -20 11 -34 35 -50 73 -50 48 0 66 12 59 39 -3 12 -1 24 4 27 17 10 9 43
-18 69 -32 29 -50 31 -79 7z m62 -76 c18 -14 18 -15 -9 -21 -30 -8 -54 6 -43
24 10 15 28 14 52 -3z"/>
<path d="M3468 1412 c-32 -19 -36 -37 -11 -46 14 -6 14 -8 -5 -22 -42 -29 -15
-74 44 -74 61 0 72 12 66 72 -5 53 -27 88 -54 88 -7 0 -25 -8 -40 -18z m60
-84 c-7 -20 -48 -23 -48 -4 0 11 9 16 26 16 16 0 24 -5 22 -12z"/>
<path d="M3617 1402 c-26 -28 -39 -92 -18 -92 5 0 13 -9 16 -20 5 -17 12 -19
47 -14 32 6 40 4 36 -7 -5 -15 -39 -17 -75 -5 -19 6 -22 4 -16 -11 11 -33 25
-43 57 -43 55 0 76 33 76 118 0 60 -3 74 -17 78 -10 3 -26 10 -35 15 -28 15
-43 11 -71 -19z m93 -56 c0 -25 -18 -37 -51 -34 -42 4 -52 33 -18 59 21 15 25
15 46 2 13 -8 23 -20 23 -27z"/>
<path d="M3798 1407 c-22 -18 -28 -31 -28 -62 0 -58 11 -69 67 -69 43 -1 48 2
51 22 3 21 1 22 -36 16 -41 -6 -56 3 -42 25 5 10 16 11 36 6 16 -5 39 -7 52
-6 19 2 22 -2 22 -29 0 -27 3 -31 23 -28 17 2 23 10 25 40 4 47 23 64 53 48
17 -10 20 -18 16 -45 -5 -32 14 -68 26 -48 14 23 17 74 6 94 -23 44 -89 80
-89 49 0 -5 -8 -10 -19 -10 -10 0 -25 -10 -33 -22 l-15 -22 -32 32 c-38 38
-47 39 -83 9z"/>
<path d="M4123 1413 c-19 -13 -23 -25 -23 -74 0 -53 2 -59 24 -65 13 -3 38 -4
57 -2 26 2 35 8 37 25 3 20 -1 22 -40 20 -37 -2 -43 1 -46 19 -4 31 23 50 53
36 18 -8 26 -8 35 3 14 16 5 35 -16 35 -8 0 -14 5 -14 10 0 15 -42 11 -67 -7z"/>
<path d="M2535 1412 c-28 -6 -35 -20 -33 -72 2 -75 38 -95 38 -21 0 22 6 44
15 51 16 13 20 36 8 43 -5 2 -17 2 -28 -1z"/>
<path d="M4338 1393 c-22 -49 -48 -55 -58 -12 -3 13 -12 24 -20 24 -20 0 -16
-56 5 -67 23 -14 19 -67 -7 -88 -28 -23 -13 -46 24 -36 22 5 58 65 58 95 0 6
9 25 21 40 22 30 23 61 2 68 -7 3 -18 -8 -25 -24z"/>
<path d="M3027 1404 c-9 -9 -9 -119 0 -127 17 -17 30 16 25 66 -4 53 -13 73
-25 61z"/>
<path d="M10663 1333 c-20 -7 -15 -23 7 -23 11 0 20 4 20 9 0 13 -12 19 -27
14z"/>
<path d="M10655 1270 c-3 -5 3 -10 14 -10 12 0 21 5 21 10 0 6 -6 10 -14 10
-8 0 -18 -4 -21 -10z"/>
</g>
</svg>
